<svg width="27" height="40" viewBox="0 0 27 40" fill="none" xmlns="http://www.w3.org/2000/svg">
<path d="M22.82 11.9136H3.7967C1.79553 11.9136 0.173873 13.5339 0.173873 15.5351L2.13686 36.3784C2.13686 38.3784 3.75972 40 5.76084 40H21.1602C23.1613 40 24.7841 38.3784 24.7841 36.3784L26.4452 15.5351C26.4428 13.5339 24.8212 11.9136 22.82 11.9136ZM8.47675 33.6589C8.47675 34.6582 7.66595 35.4678 6.66534 35.4678C5.66478 35.4678 4.85397 34.657 4.85397 33.6589V17.3477C4.85397 16.3484 5.66478 15.5351 6.66534 15.5351C7.66595 15.5351 8.47675 16.3484 8.47675 17.3477V33.6589ZM14.8178 33.6589C14.8178 34.6582 14.007 35.4678 13.0064 35.4678C12.0059 35.4678 11.1951 34.657 11.1951 33.6589V17.3477C11.1951 16.3484 12.0059 15.5351 13.0064 15.5351C14.007 15.5351 14.8178 16.3484 14.8178 17.3477V33.6589ZM21.1589 33.6589C21.1589 34.6582 20.3481 35.4678 19.3475 35.4678C18.347 35.4678 17.5362 34.657 17.5362 33.6589V17.3477C17.5362 16.3484 18.347 15.5351 19.3475 15.5351C20.3481 15.5351 21.1589 16.3484 21.1589 17.3477V33.6589ZM2.82937 10.1022L24.762 4.45976C25.9733 4.14924 26.7028 2.91453 26.391 1.70325C26.0793 0.491969 24.8446 -0.237516 23.6333 0.0705314L16.8917 1.80553C16.267 0.878859 15.1136 0.392165 13.9701 0.685414L11.3392 1.36439C10.1957 1.6589 9.42064 2.64098 9.31957 3.75371L1.70062 5.71544C0.489344 6.02596 -0.238928 7.26067 0.071594 8.47195C0.383379 9.68444 1.61809 10.4115 2.82937 10.1022Z" fill="#D62839"/>
</svg>
