<svg width="50" height="50" viewBox="0 0 50 50" fill="none" xmlns="http://www.w3.org/2000/svg">
<path d="M43.5438 10.6531L40.1313 7.24531C39.7789 6.89297 39.3157 6.71641 38.8532 6.71641C38.3907 6.71641 37.9282 6.89219 37.5758 7.24453L34.8461 9.96641L40.8141 15.9242L43.5438 13.2031C44.2493 12.4984 44.2493 11.3555 43.5438 10.6531Z" fill="white"/>
<path d="M17.1266 27.6531L23.0953 33.6117L39.5367 17.2008L33.568 11.2422L17.1266 27.6531Z" fill="white"/>
<path d="M15.8383 28.9281L14.5641 36.1563L21.8071 34.8859L15.8383 28.9281Z" fill="white"/>
<path d="M32.3383 39.3773H9.83361V16.8727H25.7156L29.6297 12.9664H8.45314C7.06329 12.9664 5.92657 14.1031 5.92657 15.493V40.7578C5.92657 42.1477 7.06329 43.2844 8.45314 43.2844H33.718C35.1078 43.2844 36.2445 42.1477 36.2445 40.7578V22.6945L32.3383 26.5938V39.3773Z" fill="white"/>
</svg>
